<svg width="26" height="20" viewBox="0 0 26 20" fill="none" xmlns="http://www.w3.org/2000/svg">
<path d="M12.5 17.225C12.3417 17.225 12.1833 17.1667 12.0583 17.0417L6.62499 11.6083C5.74166 10.725 5.74166 9.275 6.62499 8.39167L12.0583 2.95833C12.3 2.71667 12.7 2.71667 12.9417 2.95833C13.1833 3.2 13.1833 3.6 12.9417 3.84167L7.50833 9.275C7.10833 9.675 7.10833 10.325 7.50833 10.725L12.9417 16.1583C13.1833 16.4 13.1833 16.8 12.9417 17.0417C12.8167 17.1583 12.6583 17.225 12.5 17.225Z" fill="#787486"/>
<path d="M18.5 17.225C18.3417 17.225 18.1833 17.1667 18.0583 17.0417L12.625 11.6083C11.7417 10.725 11.7417 9.275 12.625 8.39167L18.0583 2.95833C18.3 2.71667 18.7 2.71667 18.9417 2.95833C19.1833 3.2 19.1833 3.6 18.9417 3.84167L13.5083 9.275C13.1083 9.675 13.1083 10.325 13.5083 10.725L18.9417 16.1583C19.1833 16.4 19.1833 16.8 18.9417 17.0417C18.8167 17.1583 18.6583 17.225 18.5 17.225Z" fill="#787486"/>
</svg>
