<svg width="26" height="20" viewBox="0 0 26 20" fill="none" xmlns="http://www.w3.org/2000/svg">
<path d="M13.5 2.775C13.6583 2.775 13.8167 2.83333 13.9417 2.95833L19.375 8.39166C20.2583 9.275 20.2583 10.725 19.375 11.6083L13.9417 17.0417C13.7 17.2833 13.3 17.2833 13.0583 17.0417C12.8167 16.8 12.8167 16.4 13.0583 16.1583L18.4917 10.725C18.8917 10.325 18.8917 9.675 18.4917 9.275L13.0583 3.84167C12.8167 3.6 12.8167 3.2 13.0583 2.95833C13.1833 2.84166 13.3417 2.775 13.5 2.775Z" fill="#787486"/>
<path d="M7.50001 2.775C7.65834 2.775 7.81667 2.83333 7.94167 2.95833L13.375 8.39166C14.2583 9.275 14.2583 10.725 13.375 11.6083L7.94167 17.0417C7.70001 17.2833 7.30001 17.2833 7.05834 17.0417C6.81667 16.8 6.81667 16.4 7.05834 16.1583L12.4917 10.725C12.8917 10.325 12.8917 9.675 12.4917 9.275L7.05834 3.84167C6.81667 3.6 6.81667 3.2 7.05834 2.95833C7.18334 2.84166 7.34167 2.775 7.50001 2.775Z" fill="#787486"/>
</svg>
